<svg width="81" height="24" viewBox="0 0 81 24" fill="none" xmlns="http://www.w3.org/2000/svg">
<path fill-rule="evenodd" clip-rule="evenodd" d="M69.832 10.5761H75.2876C75.2146 9.61691 74.966 8.90732 74.5398 8.44637C74.0743 7.95152 73.416 7.703 72.5605 7.703C71.7755 7.703 71.1333 7.95152 70.6342 8.44637C70.1348 8.94561 69.8682 9.65353 69.832 10.5761ZM76.2503 14.7248H78.9264C78.5327 16.2138 77.7838 17.349 76.6778 18.129C75.5748 18.9445 74.1821 19.3526 72.5068 19.3526C70.4746 19.3526 68.8877 18.6969 67.7476 17.384C66.6036 16.1071 66.0352 14.2801 66.0352 11.9041C66.0352 9.63603 66.5886 7.863 67.6921 6.58409C68.8342 5.27276 70.4204 4.61572 72.454 4.61572C74.5912 4.61572 76.2503 5.25418 77.4281 6.53321C78.5681 7.84538 79.1366 9.67128 79.1366 12.0129V12.3837V12.5976C79.1366 12.7732 79.1173 12.8986 79.0858 12.9703H69.8328C69.869 14.0683 70.1356 14.8855 70.635 15.4171C71.0973 15.9819 71.7928 16.2676 72.721 16.2676C73.3266 16.2676 73.8446 16.1454 74.2721 15.8968C74.3788 15.8595 74.4784 15.7997 74.568 15.7094C74.6545 15.6187 74.7521 15.5225 74.86 15.4171C74.8951 15.3096 75.0285 15.1697 75.261 14.9903C75.4941 14.8122 75.8235 14.7248 76.2503 14.7248Z" fill="#0A0A0A"/>
<path fill-rule="evenodd" clip-rule="evenodd" d="M24.3884 18.8527C23.2656 18.9172 22.0479 18.9017 20.7384 18.8053C19.4285 18.7063 18.7734 17.8979 18.7734 16.3853V1.85217H20.6114C21.0516 1.85217 21.4439 2.01696 21.7849 2.34495C22.125 2.67603 22.2959 3.07104 22.2959 3.53191V5.75741H24.3884V6.44902C24.3884 6.94362 24.2178 7.34565 23.8797 7.65822C23.5383 7.97375 23.1302 8.12834 22.652 8.12834H22.2959V15.4423C22.2959 16.0059 22.6344 16.2833 23.3151 16.2833H24.3884V18.8527Z" fill="black"/>
<path fill-rule="evenodd" clip-rule="evenodd" d="M26.2477 22.9381V20.2795H27.1778C27.8311 20.2795 28.3448 20.1287 28.7204 19.8206C29.0973 19.5117 29.1684 19.0224 28.9409 18.3486L24.3867 5.53674H28.1568L30.7991 14.6235L33.104 6.69726C33.2984 5.92393 33.8208 5.53674 34.6691 5.53674H37.0203L32.0264 20.1834C31.6347 21.2458 31.1441 22.0031 30.5555 22.456C29.9685 22.8424 29.0055 23.0367 27.6681 23.0367H27.3237H26.9831C26.8848 23.0029 26.7621 22.9795 26.6137 22.9634C26.4675 22.945 26.3456 22.9381 26.2477 22.9381Z" fill="black"/>
<path fill-rule="evenodd" clip-rule="evenodd" d="M47.5828 12.0762C47.5828 10.91 47.3335 10.0014 46.8291 9.35055C46.3276 8.67085 45.6385 8.3269 44.7667 8.3269C43.8283 8.3269 43.106 8.65418 42.6043 9.30172C42.099 9.98333 41.8477 10.91 41.8477 12.0762C41.8477 13.4409 42.081 14.4321 42.5518 15.0467C43.0541 15.7294 43.7598 16.0704 44.6675 16.0704C45.6059 16.0704 46.3276 15.7294 46.8291 15.0467C47.3335 14.3655 47.5828 13.3753 47.5828 12.0762ZM41.8486 3.51V7.40521C42.218 6.78837 42.7535 6.28345 43.4604 5.89455C44.063 5.57094 44.8006 5.40893 45.6746 5.40893C47.2501 5.40893 48.5425 6.04075 49.5485 7.30554C50.5556 8.57117 51.0593 10.2107 51.0593 12.2228C51.0593 14.2371 50.5556 15.8734 49.5485 17.1391C49.0452 17.7578 48.3656 18.2038 47.5108 18.4794C46.6561 18.7546 45.8066 18.8927 44.9698 18.8927C43.3589 18.8927 41.8651 18.4879 40.4887 17.6779C39.1125 16.8649 38.4258 15.3054 38.4258 13.002V1.85327H40.1377C40.607 1.85327 41.0092 2.01623 41.3445 2.33974C41.6802 2.66565 41.8486 3.05509 41.8486 3.51Z" fill="#0A0A0A"/>
<path fill-rule="evenodd" clip-rule="evenodd" d="M55.7891 10.5728H61.2433C61.1711 9.61575 60.9243 8.90794 60.4938 8.44616C60.0313 7.94819 59.3705 7.70129 58.5146 7.70129C57.7304 7.70129 57.0903 7.94819 56.5914 8.44616C56.0912 8.94067 55.8242 9.65143 55.7891 10.5728ZM62.2058 14.723H64.8804C64.4877 16.2126 63.738 17.3487 62.6324 18.1275C61.5289 18.9464 60.1379 19.3526 58.4632 19.3526C56.4283 19.3526 54.8439 18.6957 53.7033 17.3822C52.5627 16.1085 51.9922 14.282 51.9922 11.9049C51.9922 9.63366 52.544 7.86 53.6506 6.58296C54.7901 5.27056 56.3792 4.61572 58.4095 4.61572C60.5475 4.61572 62.2058 5.25294 63.3827 6.52788C64.5222 7.84353 65.0937 9.66777 65.0937 12.01V12.3828V12.5948C65.0937 12.774 65.0732 12.8961 65.0404 12.9697H55.789C55.8242 14.0676 56.0911 14.8835 56.5914 15.4163C57.0547 15.9852 57.7507 16.2673 58.6774 16.2673C59.2809 16.2673 59.8003 16.1437 60.228 15.8931C60.3351 15.8578 60.4317 15.7957 60.5207 15.7058C60.6081 15.6192 60.7091 15.5221 60.8151 15.4163C60.8486 15.3077 60.9835 15.1677 61.2171 14.9909C61.4475 14.8132 61.7787 14.723 62.2058 14.723Z" fill="#0A0A0A"/>
<path fill-rule="evenodd" clip-rule="evenodd" d="M10.6354 14.6977H13.1578C12.7864 16.0483 12.0809 17.0768 11.0386 17.7833C9.99383 18.5236 8.67978 18.892 7.10088 18.892C5.18191 18.892 3.68409 18.2978 2.60642 17.1082C1.527 15.951 0.992188 14.2959 0.992188 12.1408C0.992188 10.0858 1.51146 8.47692 2.55555 7.31937C3.63235 6.13182 5.12963 5.53674 7.05067 5.53674C9.0694 5.53674 10.6354 6.11489 11.7459 7.27172C12.3484 7.97963 12.7864 8.79963 13.0573 9.73038H9.52303C9.35273 9.40965 9.18623 9.16811 9.01723 9.00764C8.58023 8.55643 7.95717 8.33201 7.15043 8.33201C6.40848 8.33201 5.80433 8.55643 5.33308 9.00764C4.72708 9.65056 4.42159 10.711 4.42159 12.1875C4.42159 13.6691 4.72708 14.7155 5.33308 15.3238C5.76944 15.8389 6.42565 16.0968 7.30324 16.0968C7.87208 16.0968 8.36146 15.9826 8.76618 15.7592C8.86595 15.7277 8.95865 15.6698 9.04451 15.5893C9.12797 15.5097 9.21894 15.4204 9.32045 15.3238C9.38794 15.2283 9.52303 15.0981 9.72485 14.9374C9.92569 14.7782 10.231 14.6977 10.6354 14.6977Z" fill="black"/>
<path fill-rule="evenodd" clip-rule="evenodd" d="M13.625 5.71634H15.3102C15.7468 5.71634 16.1193 5.883 16.433 6.21259C16.7438 6.54272 16.9004 6.93874 16.9004 7.40163V18.8928H13.625V5.71634ZM13.625 1.85303H15.3102C15.7468 1.85303 16.1193 2.01819 16.433 2.34694C16.7438 2.67887 16.9004 3.07468 16.9004 3.53661V4.57646H13.625V1.85303Z" fill="black"/>
</svg>
